<svg width="1176" height="906" viewBox="0 0 1176 906" fill="none" xmlns="http://www.w3.org/2000/svg">
<rect width="1176" height="906" fill="white"/>
<mask id="mask0_1_40" style="mask-type:alpha" maskUnits="userSpaceOnUse" x="146" y="80" width="950" height="746">
<path d="M1096 507H796.937C793.474 683.768 649.097 826 471.5 826C291.731 826 146 680.269 146 500.5C146 368.305 224.805 254.518 338 203.55V80H1096V507Z" fill="#D9D9D9"/>
</mask>
<g mask="url(#mask0_1_40)">
<path d="M796.452 523.213C784.176 702.466 628.789 837.837 449.385 825.574C269.982 813.309 134.498 658.052 146.772 478.799C159.048 299.546 314.434 164.175 493.837 176.438C673.24 188.703 808.724 343.96 796.452 523.213Z" fill="black"/>
<path d="M796.452 523.213C784.176 702.466 628.789 837.837 449.385 825.574C269.982 813.309 134.498 658.052 146.772 478.799C159.048 299.546 314.434 164.175 493.837 176.438C673.24 188.703 808.724 343.96 796.452 523.213Z" fill="#A6C9E9"/>
<path d="M668.335 647.902C626.991 709.974 587.509 773.548 546.108 835.641C564.716 803.254 583.051 770.726 601.197 738.091C619.356 705.466 637.444 672.754 656.253 640.377L668.335 647.902Z" fill="white"/>
<path d="M573.939 741.33C544.77 790.144 513.57 838.044 480.997 884.668C495.032 859.933 509.28 835.28 522.732 810.312C536.111 785.32 548.705 759.846 561.488 734.436L573.939 741.33Z" fill="white"/>
<path d="M525.323 698.821C478.476 772.767 430.974 846.776 377.558 916.223C427.14 843.967 470.314 767.915 513.108 691.516L525.323 698.821Z" fill="white"/>
<path d="M570.822 539.246L445.537 485.203L395.891 540.322C312.91 543.166 297.609 619.416 297.609 619.416C216.997 612.951 169.022 715.155 169.022 715.155L203.312 765.959L290.721 824.982L355.438 870.653L347.775 883.225L410.246 879.653C463.371 803.642 447.082 760.155 438.511 745.868L570.822 539.246Z" fill="white"/>
<path d="M854.835 291.497C865.518 309.01 879.428 314.971 891.258 316.353C879.339 323.674 860.195 330.402 847.273 335.035C840.325 334.341 834.187 332.991 828.396 320.445C823.141 309.173 825.105 290.908 827.648 284.161L827.606 284.068C835.328 280.273 848.805 270.905 853.751 266.514L849.535 271.076C849.695 276.913 850.6 284.523 854.835 291.497Z" fill="#AAB0C2"/>
<path d="M993.226 203.95C1004.35 205.017 1025.09 207.389 1028.43 209.93C1029.63 210.86 1035.43 218.378 1034.97 219.995C1034.97 220.027 1034.95 220.091 1034.95 220.126L996.492 215.617C996.467 215.744 996.41 215.875 996.384 215.973L987.11 204.163C987.257 203.902 987.435 203.67 987.649 203.466C988.866 203.564 990.823 203.721 993.226 203.95Z" fill="#AAB0C2"/>
<path d="M996.384 215.973C996.41 215.875 996.467 215.744 996.492 215.617L1034.95 220.126C1032.06 233.054 1016.47 255.038 982.575 258.655C980.896 258.833 979.274 258.948 977.712 259.027C974.624 259.148 971.749 259.069 969.088 258.852C949.597 257.028 941.503 246.434 941.503 246.434C940.827 245.736 940.183 245.001 939.575 244.3L939.794 244.192C939.794 244.192 953.982 259.868 979.573 238.273C989.032 230.274 993.347 226.647 996.384 215.973Z" fill="#080604"/>
<path d="M1025.77 160.103C1025.77 160.103 1026.85 168.21 1024.53 172.824C1020.31 172.047 1002.21 168.716 979.49 164.978C978.955 165.07 978.416 165.191 977.881 165.315L978.139 151.4C996.199 151.388 1019.29 158.676 1025.77 160.103Z" fill="#AAB0C2"/>
<path d="M987.11 204.163C984.838 207.847 985.558 217.088 967.552 227.685C950.818 237.55 945.031 223.332 943.778 219.381L943.558 219.454C943.558 219.454 937.185 207.564 945.056 192.789C949.954 183.583 959.461 169.557 977.881 165.315C978.416 165.191 978.955 165.07 979.49 164.978C1002.21 168.716 1020.31 172.047 1024.53 172.824C1024.03 173.773 1023.4 174.569 1022.6 175.12C1018.56 177.842 997.085 186.128 993.226 203.95C990.823 203.721 988.866 203.564 987.649 203.466C987.435 203.67 987.257 203.902 987.11 204.163Z" fill="#080604"/>
<path d="M905.768 316.936L905.851 317.347C904.535 317.764 895.567 320.317 884.524 317.716C874.03 315.277 861.677 308.214 852.158 290.265C848.385 283.122 847.563 275.668 847.406 270.003C847.371 269.972 847.368 269.908 847.4 269.876L847.432 269.873C847.591 264.192 880.206 238.18 918.009 204.87C918.009 204.87 918.815 203.959 923.752 203.17C923.752 203.17 922.254 203.612 924.788 203.899L923.535 205.459C923.506 205.558 924.443 205.137 924.443 205.137C924.443 205.137 928.213 205.793 928.248 210.987C913.592 215.168 914.169 237.795 922.62 251.048C933.118 267.548 946.847 271.513 957.533 272.06C960.541 272.226 968.77 270.889 968.955 259.976L969.088 258.852C971.749 259.069 974.624 259.148 977.712 259.027C977.543 263.912 977.202 269.796 973.936 272.732L972.878 273.904C945.77 302.715 921.977 313.761 905.768 316.936Z" fill="#778292"/>
<path d="M969.088 258.852L968.955 259.976C968.77 270.889 960.541 272.226 957.533 272.06C946.847 271.513 933.118 267.548 922.62 251.048C914.169 237.795 912.731 215.614 927.391 211.436C927.452 219.626 929.472 232.468 939.575 244.3C940.183 245.001 940.827 245.736 941.503 246.434C941.503 246.434 949.597 257.028 969.088 258.852Z" fill="#080604"/>
<path d="M849.969 334.395C833.48 340.674 818.794 344.377 813.622 345.623C813.039 326.988 812.204 309.72 811.187 293.965L811.286 293.952C811.286 293.952 819.005 290.653 827.533 286.125L827.568 286.214C825.318 292.685 826.497 303.482 831.233 314.322C836.453 326.38 843.754 333.707 849.969 334.395Z" fill="#AAB0C2"/>
<path d="M923.468 204.755L923.49 204.593C923.997 201.953 935.941 164.456 964.458 153.492C968.279 152.024 973.002 151.435 978.139 151.4L977.881 165.315C959.461 169.557 949.954 183.583 945.056 192.789C937.185 207.564 943.558 219.454 943.558 219.454L943.778 219.381C945.031 223.332 950.818 237.55 967.552 227.685C985.558 217.088 984.838 207.847 987.11 204.163L996.384 215.973C993.347 226.647 989.032 230.274 979.573 238.273C953.982 259.868 939.794 244.192 939.794 244.192L939.575 244.3C929.472 232.468 922.808 221.46 922.748 213.27C922.71 208.077 923.468 204.755 923.468 204.755Z" fill="#778292"/>
<path d="M863.752 328.53C848.974 336.325 835.236 309.338 834.162 297.913C833.41 292.675 833.301 286.88 835.787 281.753C835.156 287.112 836.284 292.061 837.594 296.869C840.749 306.743 850.482 331.344 863.752 328.53Z" fill="#778292"/>
<path d="M880.442 282.084C882.43 287.787 881.162 293.411 877.612 294.646C874.058 295.882 869.568 292.261 867.583 286.558C865.594 280.855 866.862 275.229 870.413 273.996C873.966 272.761 878.456 276.381 880.442 282.084Z" fill="#566576"/>
<path d="M822.708 469.935C780.867 465.34 611.65 449.39 611.65 449.39C611.65 449.39 580.44 446.209 567.986 446.005L564.56 447.674L564.242 447.021C570.032 280.495 560.608 126.85 560.608 126.85L560.542 126.758L563.133 125C646.89 129.337 763.234 152.566 814.052 179.6L819.55 182.291C819.55 182.291 835.226 335.796 822.708 469.935Z" fill="#FAB10B"/>
<path d="M611.65 449.39L595.731 455.832C585.919 455.497 567.425 455.119 559.952 455.017L564.56 447.674L567.986 446.005C580.44 446.209 611.65 449.39 611.65 449.39Z" fill="#C59D1A"/>
<path d="M408.924 228.204L503.251 165.79L560.542 126.758L560.608 126.85C560.608 126.85 570.032 280.495 564.242 447.021L564.56 447.674C564.56 447.674 565.966 447.244 563.837 451.272L397.563 533.253C397.689 524.567 409.166 233.038 408.924 228.204Z" fill="#FCD006"/>
<path d="M703.512 455.679L567.307 446.633C567.336 446.575 567.387 446.505 567.416 446.451L567.087 446.62L565.784 446.534C565.781 446.741 565.876 446.954 566.02 447.168L399.915 531.903C411.78 532.425 438.735 535.04 462.811 539.185C492.227 544.248 596.604 555.327 621.258 558.744L619.215 560.834L623.005 558.972C623.068 558.979 623.151 558.991 623.215 558.997L623.03 558.96L819.693 472.797L822.676 470.575C822.699 470.349 822.689 470.158 822.708 469.935C780.867 465.34 748.387 458.37 703.512 455.679Z" fill="#95461D"/>
<path d="M503.251 165.79L416.246 225.026C416.489 229.86 415.383 238.333 415.566 243.234L415.768 243.45C406.875 251.229 402.632 266.491 403.387 284.02C399.388 285.718 395.207 287.587 390.84 289.621C389.065 290.478 387.289 291.331 385.451 292.22L398.386 218.881C410.075 174.04 447.888 153.136 490.433 160.915C492.785 161.37 497.718 163.007 503.251 165.79Z" fill="#566576"/>
<path d="M471.226 574.506C472.191 577.867 472.638 581.001 472.625 583.905C469.202 574.224 442.939 562.153 409.673 555.501C372.734 548.111 341.155 550.238 339.171 560.256L338.719 560.15C339.288 557.507 340.338 554.935 341.812 552.502C348.653 544.507 354.452 537.361 359.305 531.092C368.88 528.569 385.381 528.665 404.142 531.804C406.394 532.168 408.681 532.597 411.001 533.052C436.918 538.256 460.002 548.031 466.474 556.154C467.889 562.112 469.479 568.343 471.226 574.506Z" fill="#080604"/>
<path d="M472.625 583.905C472.647 585.656 472.478 587.353 472.112 588.935C466.627 597.275 436.829 598.645 402.404 591.766C365.465 584.377 337.154 570.27 339.171 560.256C341.155 550.238 372.734 548.111 409.673 555.501C442.939 562.153 469.202 574.224 472.625 583.905Z" fill="white"/>
<path d="M462.811 539.185C463.872 544.394 465.085 550.136 466.474 556.154C460.002 548.031 436.918 538.256 411.001 533.052C408.681 532.597 406.394 532.168 404.142 531.804L404.29 530.935C404.449 530.929 404.641 530.951 404.834 530.97C416.698 531.492 438.735 535.04 462.811 539.185Z" fill="#080604"/>
<path d="M413.496 340.359L413.821 341.107C412.067 386.785 410.03 436.37 408.619 474.284C383.564 472.899 361.415 477.899 351.957 481.436C351.666 478.803 351.997 477.131 351.997 477.131L370.283 382.668C381.562 370.943 389.074 360.426 392.432 356.751C395.213 353.679 396.943 350.657 397.664 347.211L397.953 347.259C403.441 344.721 408.622 342.419 413.496 340.359Z" fill="#566576"/>
<path d="M407.186 496.549C395.601 495.854 386.052 496.972 381.045 499.551L381.22 499.86C381.22 499.86 380.135 501.764 377.738 505.519L377.542 505.401C357.004 498.653 352.71 487.518 351.957 481.436C361.415 477.899 383.564 472.899 408.619 474.284C408.368 481.981 408.095 489.234 407.886 495.845L407.826 496.58C407.602 496.558 407.379 496.571 407.186 496.549Z" fill="#AAB0C2"/>
<path d="M407.186 496.549C407.076 501.975 406.646 507.353 406.224 512.282C388.306 510.06 374.117 511.537 371.067 516.249L370.637 515.95C373.706 511.619 376.051 508.123 377.738 505.519C380.135 501.764 381.22 499.86 381.22 499.86L381.045 499.551C386.052 496.972 395.601 495.854 407.186 496.549Z" fill="#080604"/>
<path d="M371.067 516.249C374.117 511.537 388.306 510.06 406.224 512.282C405.597 519.519 404.862 525.805 404.885 530.075L404.834 530.97C404.641 530.951 404.449 530.929 404.29 530.935L404.142 531.804C385.381 528.665 368.88 528.569 359.305 531.092C363.862 525.251 367.596 520.186 370.637 515.95L371.067 516.249Z" fill="#080604"/>
<path d="M470.066 598.746C467.86 608.967 435.204 612.961 398.825 605.128C362.446 597.294 334.743 582.66 336.947 572.436C339.152 562.214 370.43 560.275 406.81 568.108C443.189 575.938 472.271 588.522 470.066 598.746Z" fill="#FCD006"/>
<path d="M337.657 571.785C340.064 560.379 364.015 559.326 373.507 558.979C399.941 558.909 426.319 564.322 450.15 575.963C456.075 578.984 461.865 582.491 466.821 587.379C469.237 590.05 471.793 593.146 471.64 597.081C471.417 601.086 467.717 603.185 464.381 604.007C467.086 602.331 469.623 599.667 468.988 597.154C465.269 579.441 345.384 553.753 337.657 571.785Z" fill="#080604"/>
<path d="M552.562 432.597C552.106 438.605 548.705 443.245 544.964 442.961C541.223 442.681 538.558 437.58 539.014 431.574C539.47 425.566 542.87 420.926 546.612 421.21C550.353 421.49 553.017 426.591 552.562 432.597Z" fill="#E88A0F"/>
<path d="M550.872 162.838C550.417 168.844 547.016 173.486 543.275 173.203C539.537 172.919 536.872 167.821 537.325 161.813C537.781 155.807 541.181 151.165 544.923 151.448C548.664 151.732 551.328 156.83 550.872 162.838Z" fill="#E88A0F"/>
<path d="M439.68 236.54C439.225 242.546 435.824 247.185 432.084 246.905C428.343 246.622 425.679 241.52 426.133 235.515C426.587 229.506 429.988 224.867 433.73 225.15C437.471 225.434 440.134 230.532 439.68 236.54Z" fill="#E88A0F"/>
<path d="M430.435 495.937C429.981 501.946 426.58 506.585 422.839 506.302C419.098 506.022 416.434 500.921 416.889 494.915C417.343 488.906 420.744 484.267 424.485 484.55C428.226 484.831 430.89 489.932 430.435 495.937Z" fill="#E88A0F"/>
<path d="M491.051 632.875C491.051 632.875 473.189 634.83 472.663 645.412C472.14 655.996 504.975 678.626 504.975 678.626L544.668 732.582L549.199 738.687L575.654 739.471L582.024 719.094L491.051 632.875Z" fill="white"/>
<path d="M478.903 637.18C477.192 639.948 474.792 641.66 476.589 645.079C479.32 650.978 484.572 656.333 489.315 661.004C491.864 663.434 494.474 665.908 497.116 668.157L496.708 667.86C503.27 671.984 509.37 677.097 513.455 683.765C522.646 697.807 532.557 711.579 542.921 724.791C545.684 727.937 548.54 732.415 552.001 734.311C555.589 736.105 560.411 736.989 565.029 737.528C569.733 738.018 574.459 738.193 579.347 739.855L579.392 740.61C574.589 742.727 569.596 742.807 564.627 742.549C558.77 742.145 552.657 741.829 547.415 738.514C543.635 735.83 540.929 732.172 538.023 728.73C527.385 715.289 517.413 701.483 508.034 687.128C504.404 681.269 498.894 676.721 493.215 672.927C487.635 667.926 482.536 662.641 477.921 656.651C473.001 650.309 467.255 640.46 478.329 636.453L478.903 637.18Z" fill="#080604"/>
<path d="M577.321 654.365C566.128 642.463 559.19 658.081 534.157 646.968C508.767 635.747 501.466 625.08 501.466 625.08L550.605 548.295L550.63 548.136C559.515 549.091 568.043 548.597 574.165 546.633C564.723 561.232 557.75 572.327 556.864 573.74C554.824 573.814 552.154 574.616 548.89 577.011C541.449 582.552 539.476 586.506 539.081 587.516C539.024 587.678 538.998 587.774 538.998 587.774L540.015 594.948L597.981 619.788L577.76 654.853C577.591 654.671 577.454 654.518 577.321 654.365Z" fill="#778292"/>
<path d="M583.474 674.588C591.849 703.438 578.461 729.678 578.461 729.678C578.461 729.678 560.599 730.481 553.677 724.772C546.749 719.027 522.108 684.59 517.413 676.919C512.719 669.249 503.63 663.615 503.63 663.615C503.63 663.615 478.877 642.252 484.595 635.365C490.341 628.446 501.466 625.08 501.466 625.08C501.466 625.08 508.767 635.747 534.157 646.968C559.19 658.081 566.128 642.463 577.321 654.365C578.41 657.657 580.31 663.685 583.474 674.588Z" fill="#080604"/>
<path d="M656.862 432.597C657.493 432.495 673.963 428.594 674.642 428.559C689.557 427.811 702.183 438.115 702.859 451.568C702.887 452.106 702.913 452.606 702.855 453.148C702.671 463.019 695.924 471.645 686.169 475.326C683.38 476.434 680.311 477.093 677.089 477.252C668.36 477.692 660.419 474.361 655.256 468.808C655.256 468.808 655.17 468.814 655.211 468.776C651.489 464.872 650.609 470.893 650.325 465.314C640.87 455.883 642.922 434.195 656.862 432.597Z" fill="#080604"/>
<path d="M595.731 455.832L611.65 449.39L654.746 431.985C654.746 431.985 656.391 431.746 659.001 431.581C654.258 433.128 648.379 439.29 649.312 460.984C644.013 460.296 638.123 461.229 632.604 465.652C628.03 469.292 620.022 479.449 610.898 492.151L610.569 492.008L567.572 511.989L567.084 467.41L595.731 455.832Z" fill="#778292"/>
<path d="M610.569 492.008L610.898 492.151C606.07 498.93 600.891 506.394 595.725 514.02L595.69 513.989L567.591 512.339L567.572 511.989L610.569 492.008Z" fill="#080604"/>
<path d="M567.084 467.41L567.572 511.989L567.591 512.339L595.69 513.989L595.725 514.02C592.009 519.498 588.299 525.042 584.743 530.447C575.941 528.022 564.777 526.828 553.384 524.246C552.676 524.121 551.997 523.962 551.287 523.777L551.315 523.709L551.488 454.867L559.952 455.017C567.425 455.119 585.919 455.497 595.731 455.832L567.084 467.41Z" fill="#566576"/>
<path d="M584.743 530.447C581.008 536.087 577.454 541.589 574.165 546.633C568.043 548.597 559.515 549.091 550.63 548.136C538.762 546.913 526.158 543.147 517.589 537.042L517.735 536.81L553.384 524.277V524.246C564.777 526.828 575.941 528.022 584.743 530.447Z" fill="#080604"/>
<path d="M551.287 523.777C551.997 523.962 552.676 524.121 553.384 524.246V524.277L517.735 536.81L517.589 537.042C513.516 534.154 510.38 530.773 508.621 526.875C500.717 509.321 500.692 493.575 506.658 482.146C508.783 478.118 511.607 474.596 515.135 471.772L551.51 454.036L551.488 454.867L551.315 523.709L551.287 523.777Z" fill="#080604"/>
<path d="M477.663 234.267C477.695 234.264 477.759 234.295 477.791 234.292C496.657 236.372 512.515 261.798 514.038 292.105C515.581 322.766 494.05 351.424 474.537 352.405C474.537 352.405 455.124 357.207 440.001 349.644L440.032 349.609C444.908 351.405 449.908 351.822 454.763 350.657C474.088 345.954 483.718 317.318 476.274 286.702C469.11 257.158 446.031 235.455 427.055 238.196L423.551 238.311C431.114 234.047 457.728 230.006 477.663 234.267Z" fill="#566576"/>
<path d="M476.274 286.702C483.718 317.318 474.088 345.954 454.763 350.657C449.908 351.822 444.908 351.405 440.032 349.609L440.029 349.577C436.845 348.431 433.725 346.676 430.708 344.403L422.121 336.735C426.779 334.812 431.099 333.159 434.983 331.72L440.679 334.592C443.27 335.321 445.893 335.446 448.415 334.841C453.647 333.557 457.713 329.402 460.316 323.403C464.068 314.895 464.826 302.709 461.728 289.953C460.076 283.116 457.303 276.846 453.911 271.567C446.504 260.078 436.108 253.235 427.439 255.327C419.116 257.34 414.502 267.106 413.83 279.763C410.576 281.043 407.074 282.463 403.387 284.02C402.632 266.491 406.875 251.229 415.768 243.45C418.426 241.084 421.502 239.428 425.001 238.585C425.662 238.422 426.358 238.292 427.055 238.196C446.031 235.455 469.11 257.158 476.274 286.702Z" fill="#778292"/>
<path d="M461.728 289.953C464.826 302.709 464.068 314.895 460.316 323.403L460.088 323.32C460.088 323.32 453.443 325.056 441.562 329.287L441.487 329.068C447.285 324.441 447.935 310.698 443.549 297.751C439.321 285.37 431.06 276.572 423.853 276.041C434.952 272.102 441.786 270.325 441.786 270.325C441.786 270.325 449.021 268.243 453.663 271.739L453.911 271.567C457.303 276.846 460.076 283.116 461.728 289.953Z" fill="#AAB0C2"/>
<path d="M460.088 323.32L460.316 323.403C457.713 329.402 453.647 333.557 448.415 334.841C445.893 335.446 443.27 335.321 440.679 334.592L434.983 331.72C437.331 330.806 439.525 330.026 441.562 329.287C453.443 325.056 460.088 323.32 460.088 323.32Z" fill="#080604"/>
<path d="M423.853 276.041C420.812 277.117 417.46 278.34 413.83 279.763C414.502 267.106 419.116 257.34 427.439 255.327C436.108 253.235 446.504 260.078 453.911 271.567L453.663 271.739C449.021 268.243 441.786 270.325 441.786 270.325C441.786 270.325 434.952 272.102 423.853 276.041Z" fill="#080604"/>
<path d="M403.387 284.02C407.074 282.463 410.576 281.043 413.83 279.763C417.46 278.34 420.812 277.117 423.853 276.041C431.06 276.572 439.321 285.37 443.549 297.751C447.935 310.698 447.285 324.441 441.487 329.068L441.562 329.287C439.525 330.026 437.331 330.806 434.983 331.72C431.099 333.159 426.779 334.812 422.121 336.735C420.495 337.391 418.807 338.082 417.088 338.805L417.014 338.617C420.347 332.551 420.026 321.728 415.614 310.762C409.677 296.136 398.644 286.775 390.983 289.902L390.84 289.621C395.207 287.587 399.388 285.718 403.387 284.02Z" fill="#AAB0C2"/>
<path d="M385.451 292.22C387.289 291.331 389.065 290.478 390.84 289.621L390.983 289.902C398.644 286.775 409.677 296.136 415.614 310.762C420.026 321.728 420.347 332.551 417.014 338.617L417.088 338.805C415.932 339.311 414.714 339.818 413.496 340.359C408.622 342.419 403.441 344.721 397.953 347.259L397.664 347.211C398.781 342.148 397.681 336.146 394.575 327.695C390.694 317.146 382.785 305.81 369.004 300.827C374.621 297.674 380.157 294.815 385.451 292.22Z" fill="#AAB0C2"/>
<path d="M369.004 300.827C382.785 305.81 390.694 317.146 394.575 327.695C397.681 336.146 401.789 346.288 400.671 351.351C399.952 354.799 398.222 357.818 395.439 360.891C392.083 364.565 381.562 370.943 370.283 382.668C359.201 390.644 349.68 405.276 331.579 414.427L328.873 413.921C331.435 409.68 332.913 404.789 333.416 399.566C334.435 398.911 335.417 398.13 336.3 397.287C347.139 386.922 345.65 363.693 331.64 349.058C320.322 337.194 304.206 334.624 292.714 339.601C291.138 339.362 289.73 339.273 288.611 339.232C286.662 339.171 285.521 339.324 285.521 339.324C285.521 339.324 277.822 342.327 268.302 347.81C299.004 303.546 352.34 298.123 352.34 298.123C358.654 298.063 364.191 299.028 369.004 300.827Z" fill="#778292"/>
<path d="M336.086 347.708C350.096 362.34 351.583 385.572 340.745 395.937C339.863 396.777 338.88 397.56 337.861 398.216C339.35 383.413 333.084 366.065 321.932 354.319C313.919 342.859 303.819 339.318 297.16 338.251C308.651 333.274 324.767 335.844 336.086 347.708Z" fill="#080604"/>
<path d="M337.804 397.092C337.301 402.314 335.825 407.205 333.261 411.447C331.579 414.176 329.47 416.64 326.863 418.716C324.995 421.554 325.032 421.678 319.139 426.311L309.191 413.771C328.394 403.496 329.333 377.783 313.617 360.305C293.104 337.55 287.593 377.71 287.593 377.71C287.467 377.751 287.375 377.818 287.252 377.888L276.723 368.406C276.786 368.402 276.817 368.367 276.879 368.332C276.879 368.332 275.424 343.858 292.999 336.758C294.118 336.799 295.526 336.885 297.102 337.127C303.761 338.194 313.863 341.735 321.874 353.195C333.027 364.941 339.292 382.289 337.804 397.092Z" fill="#778292"/>
<path d="M286.155 425.862L309.16 413.803L309.191 413.771L319.139 426.311C318.986 426.445 318.832 426.55 318.68 426.683C285.111 448.871 271.782 452.663 271.782 452.663L264.081 441.668L286.155 425.862Z" fill="#566576"/>
<path d="M287.252 377.888C287.375 377.818 287.467 377.751 287.593 377.71C287.593 377.71 293.104 337.55 313.617 360.305C329.333 377.783 328.394 403.496 309.191 413.771L309.16 413.803L286.155 425.862C293.067 412.921 288.038 397.968 273.734 385.741L273.63 385.585C278.547 382.47 283.261 379.745 287.252 377.888Z" fill="#080604"/>
<path d="M276.723 368.406C261.063 376.812 240.149 395.558 231.492 403.61C233.254 385.352 240.144 372.634 248.409 363.769C255.525 356.143 264.75 349.877 272.69 345.333C282.21 339.849 289.909 336.85 289.909 336.85C289.909 336.85 291.05 336.697 292.999 336.758C275.424 343.858 276.879 368.332 276.879 368.332C276.817 368.367 276.786 368.402 276.723 368.406Z" fill="#AAB0C2"/>
<path d="M276.723 368.406L287.252 377.888C283.261 379.745 278.547 382.47 273.63 385.585C257.548 395.736 239.622 409.836 239.622 409.836L231.273 405.601C231.334 404.929 231.396 404.254 231.492 403.61C240.149 395.558 261.063 376.812 276.723 368.406Z" fill="#566576"/>
<path d="M413.369 279.715C419.676 276.69 426.63 281.588 430.719 286.202C440.493 296.506 447.936 324.358 433.194 333.108C430.834 333.955 428.625 334.334 426.225 334.869C428.675 333.182 431.845 332.284 433.724 329.972C442.873 317.856 430.722 278.544 413.369 279.715Z" fill="#778292"/>
<path d="M383.895 293.134C389.517 289.86 396.504 293.907 400.713 297.875C411.36 308.396 417.774 325.626 412.055 340.085C410.77 342.91 408.317 345.495 405.35 346.116C407.822 344.406 409.144 341.906 409.697 339.232C413.11 325.813 400.423 291.672 383.895 293.134Z" fill="#778292"/>
<path d="M388.464 339.789C389.262 345.772 386.886 351.029 383.158 351.523C379.431 352.02 375.763 347.568 374.966 341.582C374.168 335.599 376.543 330.345 380.27 329.848C383.999 329.351 387.666 333.803 388.464 339.789Z" fill="#566576"/>
<path d="M365.597 589.512L335.03 644.934C333.387 647.917 335.565 652.028 337.745 650.057L356.939 632.697C358.987 630.846 361.14 634.42 359.82 637.48L338.545 686.724C337.071 690.134 339.85 693.818 341.817 691.057L370.022 651.509C371.708 649.143 374.246 651.556 373.587 654.894L369.636 674.866C368.934 678.416 371.794 680.769 373.39 677.954L406.739 621.122L399.842 647.006C400.704 649.911 433.311 607.742 438.841 600.026C440.394 597.858 430.356 585.07 428.308 585.175L367.275 588.249C366.634 588.28 366.022 588.741 365.597 589.512Z" fill="#FCD006"/>
<path d="M730.428 337.675L730.38 337.996C716.964 346.575 705.386 350.472 705.386 350.472C659.386 350.074 638.936 300.024 638.168 298.088L651.693 300.562L651.617 300.919C651.617 300.919 672.95 325.383 686.599 329.673C697.948 333.249 722.464 336.64 730.428 337.675Z" fill="#080604"/>
<path d="M772.037 179.288C795.792 188.337 809.202 220.307 801.971 250.678C795.597 277.4 775.434 294.012 754.528 291.503C760.529 289.991 766.386 279.999 766.386 279.999C768.544 276.732 770.23 272.879 771.278 268.564C775.558 250.471 766.581 231.067 751.22 225.22C735.859 219.371 719.915 229.315 715.635 247.405L715.138 247.488C713.417 238.043 713.56 227.898 715.931 217.938C723.165 187.532 748.285 170.238 772.037 179.288Z" fill="white"/>
<path d="M751.15 225.128C766.533 230.981 775.523 250.414 771.237 268.529C770.188 272.85 768.499 276.709 766.338 279.983C766.338 279.983 760.474 289.988 754.461 291.503C754.429 291.5 754.429 291.5 754.429 291.5C751.545 291.156 748.645 290.44 745.789 289.357C729.823 283.247 718.761 267.507 715.265 248.118L715.517 247.344C719.803 229.226 735.77 219.272 751.15 225.128Z" fill="#080604"/>
<path d="M666.101 153.47C689.582 163.325 701.976 195.769 693.754 225.959C687.348 249.456 670.375 264.667 652.082 265.571C657.12 261.361 662.006 253.178 663.956 245.959C668.896 227.902 659.957 207.968 644.064 201.383C628.776 195.075 612.574 203.386 607.003 220.056C605.556 210.474 606.034 200.262 608.734 190.274C616.921 160.116 642.62 143.618 666.101 153.47Z" fill="white"/>
<path d="M666.235 153.432C648.462 146.035 629.445 153.438 617.555 170.312C628.945 158.524 644.628 154.005 659.444 160.151C682.319 169.643 694.413 200.832 686.436 229.838C681.819 246.606 671.512 258.961 659.22 264.565C674.868 260.651 688.585 246.482 694.206 226.004C702.489 195.795 689.955 163.313 666.235 153.432Z" fill="black"/>
<path d="M666.235 153.432C648.462 146.035 629.445 153.438 617.555 170.312C628.945 158.524 644.628 154.005 659.444 160.151C682.319 169.643 694.413 200.832 686.436 229.838C681.819 246.606 671.512 258.961 659.22 264.565C674.868 260.651 688.585 246.482 694.206 226.004C702.489 195.795 689.955 163.313 666.235 153.432Z" fill="url(#paint0_linear_1_40)"/>
<path d="M772.725 178.868C754.741 172.072 735.986 180.103 724.657 197.349C735.652 185.198 751.169 180.16 766.16 185.803C789.309 194.515 802.395 225.259 795.361 254.493C791.288 271.392 781.396 284.078 769.302 290.083C784.8 285.651 798.045 271.038 802.997 250.404C810.295 219.957 796.732 187.939 772.725 178.868Z" fill="black"/>
<path d="M772.725 178.868C754.741 172.072 735.986 180.103 724.657 197.349C735.652 185.198 751.169 180.16 766.16 185.803C789.309 194.515 802.395 225.259 795.361 254.493C791.288 271.392 781.396 284.078 769.302 290.083C784.8 285.651 798.045 271.038 802.997 250.404C810.295 219.957 796.732 187.939 772.725 178.868Z" fill="url(#paint1_linear_1_40)"/>
<path d="M647.139 198.091C664.307 205.067 673.989 226.115 668.685 245.16C666.595 252.774 661.333 261.4 655.903 265.829C650.297 266.1 644.561 265.157 638.955 262.839C621.966 255.84 610.34 238.199 607.166 217.728C613.151 200.151 630.624 191.41 647.139 198.091Z" fill="#080604"/>
<path d="M744.894 318.741V318.773C741.908 326.32 729.721 338.187 729.721 338.187C729.721 338.187 729.195 338.117 728.271 337.974C727.962 337.923 727.656 337.878 727.254 337.834C719.615 336.783 696.102 333.341 685.216 329.743C672.121 325.425 651.617 300.919 651.617 300.919L651.69 300.562L744.894 318.741Z" fill="white"/>
<path d="M621.414 299.483C632.113 291.936 649.003 287.392 661.168 293.723C647.808 296.331 635.175 300.282 621.414 299.483Z" fill="#95461D"/>
<path d="M676.987 364.167C687.6 369.227 695.876 371.536 707.151 372.956C697.769 381.031 680.624 376.067 676.987 364.167Z" fill="#95461D"/>
<path d="M609.419 259.986C609.419 259.986 658.583 254.7 667.828 268.061L628.365 277.021L609.419 259.986Z" fill="#FAB10B"/>
<path d="M721.451 280.483C721.451 280.483 770.873 281.728 778.343 296.2L738.077 299.878L721.451 280.483Z" fill="#FAB10B"/>
<path d="M719.857 336.977C719.857 336.977 731.926 337.952 737.309 330.424C737.309 330.424 726.445 352.121 705.386 350.472L719.857 336.977Z" fill="#080604"/>
<path d="M674.801 650.76L681.624 638.562L645.163 617.16L539.081 587.516L539.4 593.878L552.734 607.714L660.301 643.262L671.165 651.276L674.801 650.76Z" fill="white"/>
<path d="M663.462 601.482C660.428 597.616 657.426 593.75 654.657 590.063C642.789 574.241 626.121 582.952 615.624 585.487C632.645 543.857 664.323 470.18 664.323 470.18L665.948 468.183C666.541 468.601 666.974 468.96 667.309 469.231C667.277 469.266 667.341 469.263 667.341 469.263C671.261 474.23 677.252 477.246 683.807 476.915C686.226 476.794 688.527 476.233 690.618 475.265C693.588 477.188 695.213 486.706 695.213 486.706L663.462 601.482Z" fill="#AAB0C2"/>
<path d="M556.864 573.74C560.334 573.632 562.125 575.581 562.125 575.581C562.125 575.581 601.391 585.44 610.742 586.118C612.15 586.204 613.798 585.961 615.624 585.487C626.121 582.952 642.789 574.241 654.657 590.063C657.426 593.75 660.428 597.616 663.462 601.482C675.646 617.225 687.734 633.614 682.542 643.277C680.091 647.866 677.462 649.496 675.41 649.949C696.59 635.178 553.043 591.693 539.081 587.516C539.476 586.506 541.449 582.552 548.89 577.011C552.154 574.616 554.824 573.814 556.864 573.74Z" fill="#080604"/>
<path d="M598.399 628.06L552.829 609.624L540.235 596.642C540.235 596.642 539.779 595.493 539.836 595.33C553.798 599.508 695.615 641.991 674.438 656.767C672.166 657.295 670.556 656.355 670.556 656.355L598.399 628.06Z" fill="#080604"/>
<path d="M584.743 530.447C588.299 525.042 592.009 519.498 595.725 514.02C600.891 506.394 606.07 498.93 610.898 492.151C620.022 479.449 628.03 469.292 632.604 465.652C638.123 461.229 644.013 460.296 649.312 460.984C656.668 461.955 662.965 465.974 665.948 468.183L664.323 470.18C664.323 470.18 632.645 543.857 615.624 585.487C613.798 585.961 612.15 586.204 610.742 586.118C601.391 585.44 562.125 575.581 562.125 575.581C562.125 575.581 560.334 573.632 556.864 573.74C557.75 572.327 564.723 561.232 574.165 546.633C577.454 541.589 581.008 536.087 584.743 530.447Z" fill="#778292"/>
<path d="M596.863 564.12C594.97 569.84 590.549 573.524 586.986 572.346C583.423 571.171 582.072 565.579 583.962 559.86C585.855 554.139 590.278 550.457 593.838 551.633C597.401 552.81 598.756 558.399 596.863 564.12Z" fill="#AAB0C2"/>
<path d="M627.195 581.717C627.195 581.717 665.636 556.378 663.679 601.753C663.679 601.753 657.659 592.423 649.908 586.143C644.111 581.446 642.999 581.166 627.195 581.717Z" fill="#566576"/>
</g>
<defs>
<linearGradient id="paint0_linear_1_40" x1="102.361" y1="556.838" x2="1012.22" y2="378.321" gradientUnits="userSpaceOnUse">
<stop stop-color="#E88A0F"/>
<stop offset="1" stop-color="#FCD006"/>
</linearGradient>
<linearGradient id="paint1_linear_1_40" x1="114.711" y1="547.228" x2="1024.38" y2="419.86" gradientUnits="userSpaceOnUse">
<stop stop-color="#E88A0F"/>
<stop offset="1" stop-color="#FCD006"/>
</linearGradient>
</defs>
</svg>
